<svg width="1000" height="800" viewBox="0 0 1000 800" fill="none" xmlns="http://www.w3.org/2000/svg">
    <defs>
        <marker id="flowArrow" markerWidth="6" markerHeight="6" refX="5" refY="3" orient="auto">
            <path d="M0,0 L0,6 L6,3 z" fill="#00D2FF" />
        </marker>
        <filter id="energyGlow" x="-50%" y="-50%" width="200%" height="200%">
            <feGaussianBlur stdDeviation="3" result="blur"/>
            <feComposite in="SourceGraphic" in2="blur" operator="over"/>
        </filter>
    </defs>

    <rect width="1000" height="800" fill="#0F1720"/>
    
    <circle cx="500" cy="400" r="100" stroke="#1F2F3F" stroke-width="1"/>
    <circle cx="500" cy="400" r="200" stroke="#1F2F3F" stroke-width="1"/>
    <circle cx="500" cy="400" r="300" stroke="#1F2F3F" stroke-width="1"/>
    <path d="M500 100 V700 M200 400 H800" stroke="#1F2F3F" stroke-width="1" stroke-dasharray="5 5"/>

    <rect x="20" y="20" width="300" height="100" fill="#1F2F3F" stroke="#2C3E50" stroke-width="2"/>
    <text x="35" y="45" font-family="Consolas" font-size="14" fill="#00D2FF" font-weight="bold">NODE: CLUSTER_ARCHETYPE_150</text>
    <text x="35" y="70" font-family="Consolas" font-size="10" fill="#AAAAAA">CAPACITY: 150 UNITS (DUNBAR)</text>
    <text x="35" y="85" font-family="Consolas" font-size="10" fill="#AAAAAA">AUTARKY: LEVEL 4 (SELF-SUSTAINING)</text>
    <text x="35" y="100" font-family="Consolas" font-size="10" fill="#AAAAAA">INTERFACE: FRACTAL_MESH_V4</text>

    <g transform="translate(500, 400)">

        <path d="M0 0 L0 -350" stroke="#2C3E50" stroke-width="2"/>
        <path d="M0 0 L303 175" stroke="#2C3E50" stroke-width="2"/>
        <path d="M0 0 L-303 175" stroke="#2C3E50" stroke-width="2"/>

        <text x="0" y="-360" text-anchor="middle" font-family="Impact" font-size="24" fill="#2C3E50" opacity="0.5">HEAD</text>
        <text x="320" y="190" text-anchor="middle" font-family="Impact" font-size="24" fill="#2C3E50" opacity="0.5">HAND</text>
        <text x="-320" y="190" text-anchor="middle" font-family="Impact" font-size="24" fill="#2C3E50" opacity="0.5">HEART</text>

        <circle r="300" stroke="#FFFFFF" stroke-width="2" stroke-dasharray="20 10" opacity="0.3"/>
        <g transform="translate(0, -300)">
            <rect x="-30" y="-10" width="60" height="20" fill="#1F2F3F" stroke="#00D2FF"/>
            <text x="0" y="5" text-anchor="middle" font-family="Consolas" font-size="10" fill="#00D2FF">EXT_LINK_01</text>
        </g>
        <g transform="rotate(120) translate(0, -300)">
            <rect x="-30" y="-10" width="60" height="20" fill="#1F2F3F" stroke="#00D2FF"/>
            <text x="0" y="5" text-anchor="middle" font-family="Consolas" font-size="10" fill="#00D2FF">EXT_LINK_02</text>
        </g>
        <g transform="rotate(240) translate(0, -300)">
            <rect x="-30" y="-10" width="60" height="20" fill="#1F2F3F" stroke="#00D2FF"/>
            <text x="0" y="5" text-anchor="middle" font-family="Consolas" font-size="10" fill="#00D2FF">EXT_LINK_03</text>
        </g>

        <circle r="220" stroke="#2ECC71" stroke-width="40" fill="none" opacity="0.1"/>
        <circle r="200" stroke="#2ECC71" stroke-width="1" stroke-dasharray="5 5"/>
        <circle r="240" stroke="#2ECC71" stroke-width="1" stroke-dasharray="5 5"/>
        
        <g transform="translate(0, -220)"> <text text-anchor="middle" fill="#2ECC71" font-size="16">⚡</text> </g>
        <g transform="rotate(60) translate(0, -220)"> <text text-anchor="middle" fill="#2ECC71" font-size="16">🌱</text> </g>
        <g transform="rotate(120) translate(0, -220)"> <text text-anchor="middle" fill="#2ECC71" font-size="16">⚙️</text> </g>
        <g transform="rotate(180) translate(0, -220)"> <text text-anchor="middle" fill="#2ECC71" font-size="16">💧</text> </g>
        <g transform="rotate(240) translate(0, -220)"> <text text-anchor="middle" fill="#2ECC71" font-size="16">♻️</text> </g>
        <g transform="rotate(300) translate(0, -220)"> <text text-anchor="middle" fill="#2ECC71" font-size="16">📦</text> </g>

        <circle r="120" stroke="#00D2FF" stroke-width="30" fill="none" opacity="0.15"/>
        <circle r="105" stroke="#00D2FF" stroke-width="2"/>
        <circle r="135" stroke="#00D2FF" stroke-width="2"/>
        <circle r="120" stroke="#00D2FF" stroke-width="20" stroke-dasharray="2 8" opacity="0.5" fill="none"/>

        <circle r="60" fill="#1F2F3F" stroke="#F2C94C" stroke-width="2"/>
        <g id="councilRing">
            <circle cx="0" cy="-40" r="5" fill="#F2C94C"/> <circle cx="20" cy="-34" r="5" fill="#F2C94C"/>
            <circle cx="34" cy="-20" r="5" fill="#F2C94C"/> <circle cx="40" cy="0" r="5" fill="#F2C94C"/>
            <circle cx="34" cy="20" r="5" fill="#F2C94C"/> <circle cx="20" cy="34" r="5" fill="#F2C94C"/>
            <circle cx="0" cy="40" r="5" fill="#F2C94C"/> <circle cx="-20" cy="34" r="5" fill="#F2C94C"/>
            <circle cx="-34" cy="20" r="5" fill="#F2C94C"/> <circle cx="-40" cy="0" r="5" fill="#F2C94C"/>
            <circle cx="-34" cy="-20" r="5" fill="#F2C94C"/> <circle cx="-20" cy="-34" r="5" fill="#F2C94C"/>
        </g>
        <circle cx="0" cy="0" r="8" fill="#E74C3C" stroke="#FFFFFF" stroke-width="1"/>
        <text x="0" y="25" text-anchor="middle" font-family="Consolas" font-size="8" fill="#E74C3C">VETO NODE</text>

        <line x1="0" y1="-200" x2="0" y2="-135" stroke="#2ECC71" stroke-width="2" marker-end="url(#flowArrow)" stroke-dasharray="2 2"/>
        <line x1="173" y1="100" x2="116" y2="67" stroke="#2ECC71" stroke-width="2" marker-end="url(#flowArrow)" stroke-dasharray="2 2"/>
        <line x1="-173" y1="100" x2="-116" y2="67" stroke="#2ECC71" stroke-width="2" marker-end="url(#flowArrow)" stroke-dasharray="2 2"/>

    </g>

    <g transform="translate(50, 750)">
        <circle cx="0" cy="0" r="5" fill="#F2C94C"/><text x="15" y="4" font-family="Consolas" font-size="10" fill="#AAAAAA">COUNCIL SEAT</text>
        <circle cx="120" cy="0" r="5" fill="#E74C3C"/><text x="135" y="4" font-family="Consolas" font-size="10" fill="#AAAAAA">CRITIC (13th)</text>
        <circle cx="240" cy="0" r="5" fill="#2ECC71"/><text x="255" y="4" font-family="Consolas" font-size="10" fill="#AAAAAA">RESOURCE FLOW</text>
        <rect x="360" y="-5" width="20" height="10" stroke="#00D2FF" fill="#1F2F3F"/><text x="390" y="4" font-family="Consolas" font-size="10" fill="#AAAAAA">EXT. PORT</text>
    </g>
    
    <g transform="translate(50, 775)">
        <text x="0" y="5" text-anchor="middle" fill="#2ECC71" font-size="14">⚡</text><text x="15" y="5" font-family="Consolas" font-size="10" fill="#AAAAAA">ENERGY</text>
        <text x="80" y="5" text-anchor="middle" fill="#2ECC71" font-size="14">🌱</text><text x="95" y="5" font-family="Consolas" font-size="10" fill="#AAAAAA">AGRI</text>
        <text x="150" y="5" text-anchor="middle" fill="#2ECC71" font-size="14">⚙️</text><text x="170" y="5" font-family="Consolas" font-size="10" fill="#AAAAAA">INDUSTRY</text>
        <text x="240" y="5" text-anchor="middle" fill="#2ECC71" font-size="14">💧</text><text x="255" y="5" font-family="Consolas" font-size="10" fill="#AAAAAA">WATER</text>
        <text x="310" y="5" text-anchor="middle" fill="#2ECC71" font-size="14">♻️</text><text x="330" y="5" font-family="Consolas" font-size="10" fill="#AAAAAA">RECYCLE</text>
        <text x="400" y="5" text-anchor="middle" fill="#2ECC71" font-size="14">📦</text><text x="420" y="5" font-family="Consolas" font-size="10" fill="#AAAAAA">LOGISTICS</text>
    </g>

</svg>
