<svg width="512" height="512" viewBox="0 0 512 512" fill="none" xmlns="http://www.w3.org/2000/svg">
    <defs>
        <linearGradient id="techCold" x1="0" y1="0" x2="512" y2="512" gradientUnits="userSpaceOnUse">
            <stop offset="0%" stop-color="#2C3E50" /> <stop offset="100%" stop-color="#00F260" /> </linearGradient>
    </defs>
    <path d="M256 40 L470 160 V352 L256 472 L42 352 V160 L256 40Z" 
          stroke="url(#techCold)" stroke-width="8" fill="none" stroke-linejoin="round"/>
    
    <g stroke="url(#techCold)" stroke-width="3" opacity="0.7">
        <circle cx="256" cy="256" r="30" stroke-width="4"/>
        <circle cx="256" cy="256" r="10" fill="url(#techCold)"/>
        <path d="M256 226 V160 M256 286 V352 M226 256 H160 M286 256 H352"/>
        <path d="M256 160 L160 100 M256 160 L352 100 M256 352 L160 412 M256 352 L352 412"/>
        <circle cx="160" cy="100" r="5" fill="url(#techCold)"/>
        <circle cx="352" cy="100" r="5" fill="url(#techCold)"/>
        <circle cx="160" cy="412" r="5" fill="url(#techCold)"/>
        <circle cx="352" cy="412" r="5" fill="url(#techCold)"/>
    </g>
</svg>
