<?xml version="1.0" encoding="utf-8" standalone="no"?>
<!DOCTYPE svg PUBLIC "-//W3C//DTD SVG 1.1//EN"
  "http://www.w3.org/Graphics/SVG/1.1/DTD/svg11.dtd">
<svg xmlns:xlink="http://www.w3.org/1999/xlink" width="460.8pt" height="345.6pt" viewBox="0 0 460.8 345.6" xmlns="http://www.w3.org/2000/svg" version="1.1">
 <metadata>
  <rdf:RDF xmlns:dc="http://purl.org/dc/elements/1.1/" xmlns:cc="http://creativecommons.org/ns#" xmlns:rdf="http://www.w3.org/1999/02/22-rdf-syntax-ns#">
   <cc:Work>
    <dc:type rdf:resource="http://purl.org/dc/dcmitype/StillImage"/>
    <dc:date>2026-02-16T09:22:54.490525</dc:date>
    <dc:format>image/svg+xml</dc:format>
    <dc:creator>
     <cc:Agent>
      <dc:title>Matplotlib v3.7.5, https://matplotlib.org/</dc:title>
     </cc:Agent>
    </dc:creator>
   </cc:Work>
  </rdf:RDF>
 </metadata>
 <defs>
  <style type="text/css">*{stroke-linejoin: round; stroke-linecap: butt}</style>
 </defs>
 <g id="figure_1">
  <g id="patch_1">
   <path d="M 0 345.6 
L 460.8 345.6 
L 460.8 0 
L 0 0 
z
" style="fill: #ffffff"/>
  </g>
  <g id="axes_1">
   <g id="patch_2">
    <path d="M 57.6 307.584 
L 414.72 307.584 
L 414.72 41.472 
L 57.6 41.472 
z
" style="fill: #ffffff"/>
   </g>
   <g id="matplotlib.axis_1">
    <g id="xtick_1">
     <g id="line2d_1">
      <defs>
       <path id="m71cac9f708" d="M 0 0 
L 0 3.5 
" style="stroke: #000000; stroke-width: 0.8"/>
      </defs>
      <g>
       <use xlink:href="#m71cac9f708" x="73.832727" y="307.584" style="stroke: #000000; stroke-width: 0.8"/>
      </g>
     </g>
     <g id="text_1">
      <!-- 0 -->
      <g transform="translate(70.651477 322.182437) scale(0.1 -0.1)">
       <defs>
        <path id="DejaVuSans-30" d="M 2034 4250 
Q 1547 4250 1301 3770 
Q 1056 3291 1056 2328 
Q 1056 1369 1301 889 
Q 1547 409 2034 409 
Q 2525 409 2770 889 
Q 3016 1369 3016 2328 
Q 3016 3291 2770 3770 
Q 2525 4250 2034 4250 
z
M 2034 4750 
Q 2819 4750 3233 4129 
Q 3647 3509 3647 2328 
Q 3647 1150 3233 529 
Q 2819 -91 2034 -91 
Q 1250 -91 836 529 
Q 422 1150 422 2328 
Q 422 3509 836 4129 
Q 1250 4750 2034 4750 
z
" transform="scale(0.015625)"/>
       </defs>
       <use xlink:href="#DejaVuSans-30"/>
      </g>
     </g>
    </g>
    <g id="xtick_2">
     <g id="line2d_2">
      <g>
       <use xlink:href="#m71cac9f708" x="138.763636" y="307.584" style="stroke: #000000; stroke-width: 0.8"/>
      </g>
     </g>
     <g id="text_2">
      <!-- 2 -->
      <g transform="translate(135.582386 322.182437) scale(0.1 -0.1)">
       <defs>
        <path id="DejaVuSans-32" d="M 1228 531 
L 3431 531 
L 3431 0 
L 469 0 
L 469 531 
Q 828 903 1448 1529 
Q 2069 2156 2228 2338 
Q 2531 2678 2651 2914 
Q 2772 3150 2772 3378 
Q 2772 3750 2511 3984 
Q 2250 4219 1831 4219 
Q 1534 4219 1204 4116 
Q 875 4013 500 3803 
L 500 4441 
Q 881 4594 1212 4672 
Q 1544 4750 1819 4750 
Q 2544 4750 2975 4387 
Q 3406 4025 3406 3419 
Q 3406 3131 3298 2873 
Q 3191 2616 2906 2266 
Q 2828 2175 2409 1742 
Q 1991 1309 1228 531 
z
" transform="scale(0.015625)"/>
       </defs>
       <use xlink:href="#DejaVuSans-32"/>
      </g>
     </g>
    </g>
    <g id="xtick_3">
     <g id="line2d_3">
      <g>
       <use xlink:href="#m71cac9f708" x="203.694545" y="307.584" style="stroke: #000000; stroke-width: 0.8"/>
      </g>
     </g>
     <g id="text_3">
      <!-- 4 -->
      <g transform="translate(200.513295 322.182437) scale(0.1 -0.1)">
       <defs>
        <path id="DejaVuSans-34" d="M 2419 4116 
L 825 1625 
L 2419 1625 
L 2419 4116 
z
M 2253 4666 
L 3047 4666 
L 3047 1625 
L 3713 1625 
L 3713 1100 
L 3047 1100 
L 3047 0 
L 2419 0 
L 2419 1100 
L 313 1100 
L 313 1709 
L 2253 4666 
z
" transform="scale(0.015625)"/>
       </defs>
       <use xlink:href="#DejaVuSans-34"/>
      </g>
     </g>
    </g>
    <g id="xtick_4">
     <g id="line2d_4">
      <g>
       <use xlink:href="#m71cac9f708" x="268.625455" y="307.584" style="stroke: #000000; stroke-width: 0.8"/>
      </g>
     </g>
     <g id="text_4">
      <!-- 6 -->
      <g transform="translate(265.444205 322.182437) scale(0.1 -0.1)">
       <defs>
        <path id="DejaVuSans-36" d="M 2113 2584 
Q 1688 2584 1439 2293 
Q 1191 2003 1191 1497 
Q 1191 994 1439 701 
Q 1688 409 2113 409 
Q 2538 409 2786 701 
Q 3034 994 3034 1497 
Q 3034 2003 2786 2293 
Q 2538 2584 2113 2584 
z
M 3366 4563 
L 3366 3988 
Q 3128 4100 2886 4159 
Q 2644 4219 2406 4219 
Q 1781 4219 1451 3797 
Q 1122 3375 1075 2522 
Q 1259 2794 1537 2939 
Q 1816 3084 2150 3084 
Q 2853 3084 3261 2657 
Q 3669 2231 3669 1497 
Q 3669 778 3244 343 
Q 2819 -91 2113 -91 
Q 1303 -91 875 529 
Q 447 1150 447 2328 
Q 447 3434 972 4092 
Q 1497 4750 2381 4750 
Q 2619 4750 2861 4703 
Q 3103 4656 3366 4563 
z
" transform="scale(0.015625)"/>
       </defs>
       <use xlink:href="#DejaVuSans-36"/>
      </g>
     </g>
    </g>
    <g id="xtick_5">
     <g id="line2d_5">
      <g>
       <use xlink:href="#m71cac9f708" x="333.556364" y="307.584" style="stroke: #000000; stroke-width: 0.8"/>
      </g>
     </g>
     <g id="text_5">
      <!-- 8 -->
      <g transform="translate(330.375114 322.182437) scale(0.1 -0.1)">
       <defs>
        <path id="DejaVuSans-38" d="M 2034 2216 
Q 1584 2216 1326 1975 
Q 1069 1734 1069 1313 
Q 1069 891 1326 650 
Q 1584 409 2034 409 
Q 2484 409 2743 651 
Q 3003 894 3003 1313 
Q 3003 1734 2745 1975 
Q 2488 2216 2034 2216 
z
M 1403 2484 
Q 997 2584 770 2862 
Q 544 3141 544 3541 
Q 544 4100 942 4425 
Q 1341 4750 2034 4750 
Q 2731 4750 3128 4425 
Q 3525 4100 3525 3541 
Q 3525 3141 3298 2862 
Q 3072 2584 2669 2484 
Q 3125 2378 3379 2068 
Q 3634 1759 3634 1313 
Q 3634 634 3220 271 
Q 2806 -91 2034 -91 
Q 1263 -91 848 271 
Q 434 634 434 1313 
Q 434 1759 690 2068 
Q 947 2378 1403 2484 
z
M 1172 3481 
Q 1172 3119 1398 2916 
Q 1625 2713 2034 2713 
Q 2441 2713 2670 2916 
Q 2900 3119 2900 3481 
Q 2900 3844 2670 4047 
Q 2441 4250 2034 4250 
Q 1625 4250 1398 4047 
Q 1172 3844 1172 3481 
z
" transform="scale(0.015625)"/>
       </defs>
       <use xlink:href="#DejaVuSans-38"/>
      </g>
     </g>
    </g>
    <g id="xtick_6">
     <g id="line2d_6">
      <g>
       <use xlink:href="#m71cac9f708" x="398.487273" y="307.584" style="stroke: #000000; stroke-width: 0.8"/>
      </g>
     </g>
     <g id="text_6">
      <!-- 10 -->
      <g transform="translate(392.124773 322.182437) scale(0.1 -0.1)">
       <defs>
        <path id="DejaVuSans-31" d="M 794 531 
L 1825 531 
L 1825 4091 
L 703 3866 
L 703 4441 
L 1819 4666 
L 2450 4666 
L 2450 531 
L 3481 531 
L 3481 0 
L 794 0 
L 794 531 
z
" transform="scale(0.015625)"/>
       </defs>
       <use xlink:href="#DejaVuSans-31"/>
       <use xlink:href="#DejaVuSans-30" x="63.623047"/>
      </g>
     </g>
    </g>
    <g id="text_7">
     <!-- Innovation Activity -->
     <g transform="translate(189.399062 335.860562) scale(0.1 -0.1)">
      <defs>
       <path id="DejaVuSans-49" d="M 628 4666 
L 1259 4666 
L 1259 0 
L 628 0 
L 628 4666 
z
" transform="scale(0.015625)"/>
       <path id="DejaVuSans-6e" d="M 3513 2113 
L 3513 0 
L 2938 0 
L 2938 2094 
Q 2938 2591 2744 2837 
Q 2550 3084 2163 3084 
Q 1697 3084 1428 2787 
Q 1159 2491 1159 1978 
L 1159 0 
L 581 0 
L 581 3500 
L 1159 3500 
L 1159 2956 
Q 1366 3272 1645 3428 
Q 1925 3584 2291 3584 
Q 2894 3584 3203 3211 
Q 3513 2838 3513 2113 
z
" transform="scale(0.015625)"/>
       <path id="DejaVuSans-6f" d="M 1959 3097 
Q 1497 3097 1228 2736 
Q 959 2375 959 1747 
Q 959 1119 1226 758 
Q 1494 397 1959 397 
Q 2419 397 2687 759 
Q 2956 1122 2956 1747 
Q 2956 2369 2687 2733 
Q 2419 3097 1959 3097 
z
M 1959 3584 
Q 2709 3584 3137 3096 
Q 3566 2609 3566 1747 
Q 3566 888 3137 398 
Q 2709 -91 1959 -91 
Q 1206 -91 779 398 
Q 353 888 353 1747 
Q 353 2609 779 3096 
Q 1206 3584 1959 3584 
z
" transform="scale(0.015625)"/>
       <path id="DejaVuSans-76" d="M 191 3500 
L 800 3500 
L 1894 563 
L 2988 3500 
L 3597 3500 
L 2284 0 
L 1503 0 
L 191 3500 
z
" transform="scale(0.015625)"/>
       <path id="DejaVuSans-61" d="M 2194 1759 
Q 1497 1759 1228 1600 
Q 959 1441 959 1056 
Q 959 750 1161 570 
Q 1363 391 1709 391 
Q 2188 391 2477 730 
Q 2766 1069 2766 1631 
L 2766 1759 
L 2194 1759 
z
M 3341 1997 
L 3341 0 
L 2766 0 
L 2766 531 
Q 2569 213 2275 61 
Q 1981 -91 1556 -91 
Q 1019 -91 701 211 
Q 384 513 384 1019 
Q 384 1609 779 1909 
Q 1175 2209 1959 2209 
L 2766 2209 
L 2766 2266 
Q 2766 2663 2505 2880 
Q 2244 3097 1772 3097 
Q 1472 3097 1187 3025 
Q 903 2953 641 2809 
L 641 3341 
Q 956 3463 1253 3523 
Q 1550 3584 1831 3584 
Q 2591 3584 2966 3190 
Q 3341 2797 3341 1997 
z
" transform="scale(0.015625)"/>
       <path id="DejaVuSans-74" d="M 1172 4494 
L 1172 3500 
L 2356 3500 
L 2356 3053 
L 1172 3053 
L 1172 1153 
Q 1172 725 1289 603 
Q 1406 481 1766 481 
L 2356 481 
L 2356 0 
L 1766 0 
Q 1100 0 847 248 
Q 594 497 594 1153 
L 594 3053 
L 172 3053 
L 172 3500 
L 594 3500 
L 594 4494 
L 1172 4494 
z
" transform="scale(0.015625)"/>
       <path id="DejaVuSans-69" d="M 603 3500 
L 1178 3500 
L 1178 0 
L 603 0 
L 603 3500 
z
M 603 4863 
L 1178 4863 
L 1178 4134 
L 603 4134 
L 603 4863 
z
" transform="scale(0.015625)"/>
       <path id="DejaVuSans-20" transform="scale(0.015625)"/>
       <path id="DejaVuSans-41" d="M 2188 4044 
L 1331 1722 
L 3047 1722 
L 2188 4044 
z
M 1831 4666 
L 2547 4666 
L 4325 0 
L 3669 0 
L 3244 1197 
L 1141 1197 
L 716 0 
L 50 0 
L 1831 4666 
z
" transform="scale(0.015625)"/>
       <path id="DejaVuSans-63" d="M 3122 3366 
L 3122 2828 
Q 2878 2963 2633 3030 
Q 2388 3097 2138 3097 
Q 1578 3097 1268 2742 
Q 959 2388 959 1747 
Q 959 1106 1268 751 
Q 1578 397 2138 397 
Q 2388 397 2633 464 
Q 2878 531 3122 666 
L 3122 134 
Q 2881 22 2623 -34 
Q 2366 -91 2075 -91 
Q 1284 -91 818 406 
Q 353 903 353 1747 
Q 353 2603 823 3093 
Q 1294 3584 2113 3584 
Q 2378 3584 2631 3529 
Q 2884 3475 3122 3366 
z
" transform="scale(0.015625)"/>
       <path id="DejaVuSans-79" d="M 2059 -325 
Q 1816 -950 1584 -1140 
Q 1353 -1331 966 -1331 
L 506 -1331 
L 506 -850 
L 844 -850 
Q 1081 -850 1212 -737 
Q 1344 -625 1503 -206 
L 1606 56 
L 191 3500 
L 800 3500 
L 1894 763 
L 2988 3500 
L 3597 3500 
L 2059 -325 
z
" transform="scale(0.015625)"/>
      </defs>
      <use xlink:href="#DejaVuSans-49"/>
      <use xlink:href="#DejaVuSans-6e" x="29.492188"/>
      <use xlink:href="#DejaVuSans-6e" x="92.871094"/>
      <use xlink:href="#DejaVuSans-6f" x="156.25"/>
      <use xlink:href="#DejaVuSans-76" x="217.431641"/>
      <use xlink:href="#DejaVuSans-61" x="276.611328"/>
      <use xlink:href="#DejaVuSans-74" x="337.890625"/>
      <use xlink:href="#DejaVuSans-69" x="377.099609"/>
      <use xlink:href="#DejaVuSans-6f" x="404.882812"/>
      <use xlink:href="#DejaVuSans-6e" x="466.064453"/>
      <use xlink:href="#DejaVuSans-20" x="529.443359"/>
      <use xlink:href="#DejaVuSans-41" x="561.230469"/>
      <use xlink:href="#DejaVuSans-63" x="627.888672"/>
      <use xlink:href="#DejaVuSans-74" x="682.869141"/>
      <use xlink:href="#DejaVuSans-69" x="722.078125"/>
      <use xlink:href="#DejaVuSans-76" x="749.861328"/>
      <use xlink:href="#DejaVuSans-69" x="809.041016"/>
      <use xlink:href="#DejaVuSans-74" x="836.824219"/>
      <use xlink:href="#DejaVuSans-79" x="876.033203"/>
     </g>
    </g>
   </g>
   <g id="matplotlib.axis_2">
    <g id="ytick_1">
     <g id="line2d_7">
      <defs>
       <path id="m3014212e96" d="M 0 0 
L -3.5 0 
" style="stroke: #000000; stroke-width: 0.8"/>
      </defs>
      <g>
       <use xlink:href="#m3014212e96" x="57.6" y="295.488" style="stroke: #000000; stroke-width: 0.8"/>
      </g>
     </g>
     <g id="text_8">
      <!-- 0 -->
      <g transform="translate(44.2375 299.287219) scale(0.1 -0.1)">
       <use xlink:href="#DejaVuSans-30"/>
      </g>
     </g>
    </g>
    <g id="ytick_2">
     <g id="line2d_8">
      <g>
       <use xlink:href="#m3014212e96" x="57.6" y="247.104" style="stroke: #000000; stroke-width: 0.8"/>
      </g>
     </g>
     <g id="text_9">
      <!-- 20 -->
      <g transform="translate(37.875 250.903219) scale(0.1 -0.1)">
       <use xlink:href="#DejaVuSans-32"/>
       <use xlink:href="#DejaVuSans-30" x="63.623047"/>
      </g>
     </g>
    </g>
    <g id="ytick_3">
     <g id="line2d_9">
      <g>
       <use xlink:href="#m3014212e96" x="57.6" y="198.72" style="stroke: #000000; stroke-width: 0.8"/>
      </g>
     </g>
     <g id="text_10">
      <!-- 40 -->
      <g transform="translate(37.875 202.519219) scale(0.1 -0.1)">
       <use xlink:href="#DejaVuSans-34"/>
       <use xlink:href="#DejaVuSans-30" x="63.623047"/>
      </g>
     </g>
    </g>
    <g id="ytick_4">
     <g id="line2d_10">
      <g>
       <use xlink:href="#m3014212e96" x="57.6" y="150.336" style="stroke: #000000; stroke-width: 0.8"/>
      </g>
     </g>
     <g id="text_11">
      <!-- 60 -->
      <g transform="translate(37.875 154.135219) scale(0.1 -0.1)">
       <use xlink:href="#DejaVuSans-36"/>
       <use xlink:href="#DejaVuSans-30" x="63.623047"/>
      </g>
     </g>
    </g>
    <g id="ytick_5">
     <g id="line2d_11">
      <g>
       <use xlink:href="#m3014212e96" x="57.6" y="101.952" style="stroke: #000000; stroke-width: 0.8"/>
      </g>
     </g>
     <g id="text_12">
      <!-- 80 -->
      <g transform="translate(37.875 105.751219) scale(0.1 -0.1)">
       <use xlink:href="#DejaVuSans-38"/>
       <use xlink:href="#DejaVuSans-30" x="63.623047"/>
      </g>
     </g>
    </g>
    <g id="ytick_6">
     <g id="line2d_12">
      <g>
       <use xlink:href="#m3014212e96" x="57.6" y="53.568" style="stroke: #000000; stroke-width: 0.8"/>
      </g>
     </g>
     <g id="text_13">
      <!-- 100 -->
      <g transform="translate(31.5125 57.367219) scale(0.1 -0.1)">
       <use xlink:href="#DejaVuSans-31"/>
       <use xlink:href="#DejaVuSans-30" x="63.623047"/>
       <use xlink:href="#DejaVuSans-30" x="127.246094"/>
      </g>
     </g>
    </g>
    <g id="text_14">
     <!-- Accumulated Structural Power -->
     <g transform="translate(25.432812 250.268625) rotate(-90) scale(0.1 -0.1)">
      <defs>
       <path id="DejaVuSans-75" d="M 544 1381 
L 544 3500 
L 1119 3500 
L 1119 1403 
Q 1119 906 1312 657 
Q 1506 409 1894 409 
Q 2359 409 2629 706 
Q 2900 1003 2900 1516 
L 2900 3500 
L 3475 3500 
L 3475 0 
L 2900 0 
L 2900 538 
Q 2691 219 2414 64 
Q 2138 -91 1772 -91 
Q 1169 -91 856 284 
Q 544 659 544 1381 
z
M 1991 3584 
L 1991 3584 
z
" transform="scale(0.015625)"/>
       <path id="DejaVuSans-6d" d="M 3328 2828 
Q 3544 3216 3844 3400 
Q 4144 3584 4550 3584 
Q 5097 3584 5394 3201 
Q 5691 2819 5691 2113 
L 5691 0 
L 5113 0 
L 5113 2094 
Q 5113 2597 4934 2840 
Q 4756 3084 4391 3084 
Q 3944 3084 3684 2787 
Q 3425 2491 3425 1978 
L 3425 0 
L 2847 0 
L 2847 2094 
Q 2847 2600 2669 2842 
Q 2491 3084 2119 3084 
Q 1678 3084 1418 2786 
Q 1159 2488 1159 1978 
L 1159 0 
L 581 0 
L 581 3500 
L 1159 3500 
L 1159 2956 
Q 1356 3278 1631 3431 
Q 1906 3584 2284 3584 
Q 2666 3584 2933 3390 
Q 3200 3197 3328 2828 
z
" transform="scale(0.015625)"/>
       <path id="DejaVuSans-6c" d="M 603 4863 
L 1178 4863 
L 1178 0 
L 603 0 
L 603 4863 
z
" transform="scale(0.015625)"/>
       <path id="DejaVuSans-65" d="M 3597 1894 
L 3597 1613 
L 953 1613 
Q 991 1019 1311 708 
Q 1631 397 2203 397 
Q 2534 397 2845 478 
Q 3156 559 3463 722 
L 3463 178 
Q 3153 47 2828 -22 
Q 2503 -91 2169 -91 
Q 1331 -91 842 396 
Q 353 884 353 1716 
Q 353 2575 817 3079 
Q 1281 3584 2069 3584 
Q 2775 3584 3186 3129 
Q 3597 2675 3597 1894 
z
M 3022 2063 
Q 3016 2534 2758 2815 
Q 2500 3097 2075 3097 
Q 1594 3097 1305 2825 
Q 1016 2553 972 2059 
L 3022 2063 
z
" transform="scale(0.015625)"/>
       <path id="DejaVuSans-64" d="M 2906 2969 
L 2906 4863 
L 3481 4863 
L 3481 0 
L 2906 0 
L 2906 525 
Q 2725 213 2448 61 
Q 2172 -91 1784 -91 
Q 1150 -91 751 415 
Q 353 922 353 1747 
Q 353 2572 751 3078 
Q 1150 3584 1784 3584 
Q 2172 3584 2448 3432 
Q 2725 3281 2906 2969 
z
M 947 1747 
Q 947 1113 1208 752 
Q 1469 391 1925 391 
Q 2381 391 2643 752 
Q 2906 1113 2906 1747 
Q 2906 2381 2643 2742 
Q 2381 3103 1925 3103 
Q 1469 3103 1208 2742 
Q 947 2381 947 1747 
z
" transform="scale(0.015625)"/>
       <path id="DejaVuSans-53" d="M 3425 4513 
L 3425 3897 
Q 3066 4069 2747 4153 
Q 2428 4238 2131 4238 
Q 1616 4238 1336 4038 
Q 1056 3838 1056 3469 
Q 1056 3159 1242 3001 
Q 1428 2844 1947 2747 
L 2328 2669 
Q 3034 2534 3370 2195 
Q 3706 1856 3706 1288 
Q 3706 609 3251 259 
Q 2797 -91 1919 -91 
Q 1588 -91 1214 -16 
Q 841 59 441 206 
L 441 856 
Q 825 641 1194 531 
Q 1563 422 1919 422 
Q 2459 422 2753 634 
Q 3047 847 3047 1241 
Q 3047 1584 2836 1778 
Q 2625 1972 2144 2069 
L 1759 2144 
Q 1053 2284 737 2584 
Q 422 2884 422 3419 
Q 422 4038 858 4394 
Q 1294 4750 2059 4750 
Q 2388 4750 2728 4690 
Q 3069 4631 3425 4513 
z
" transform="scale(0.015625)"/>
       <path id="DejaVuSans-72" d="M 2631 2963 
Q 2534 3019 2420 3045 
Q 2306 3072 2169 3072 
Q 1681 3072 1420 2755 
Q 1159 2438 1159 1844 
L 1159 0 
L 581 0 
L 581 3500 
L 1159 3500 
L 1159 2956 
Q 1341 3275 1631 3429 
Q 1922 3584 2338 3584 
Q 2397 3584 2469 3576 
Q 2541 3569 2628 3553 
L 2631 2963 
z
" transform="scale(0.015625)"/>
       <path id="DejaVuSans-50" d="M 1259 4147 
L 1259 2394 
L 2053 2394 
Q 2494 2394 2734 2622 
Q 2975 2850 2975 3272 
Q 2975 3691 2734 3919 
Q 2494 4147 2053 4147 
L 1259 4147 
z
M 628 4666 
L 2053 4666 
Q 2838 4666 3239 4311 
Q 3641 3956 3641 3272 
Q 3641 2581 3239 2228 
Q 2838 1875 2053 1875 
L 1259 1875 
L 1259 0 
L 628 0 
L 628 4666 
z
" transform="scale(0.015625)"/>
       <path id="DejaVuSans-77" d="M 269 3500 
L 844 3500 
L 1563 769 
L 2278 3500 
L 2956 3500 
L 3675 769 
L 4391 3500 
L 4966 3500 
L 4050 0 
L 3372 0 
L 2619 2869 
L 1863 0 
L 1184 0 
L 269 3500 
z
" transform="scale(0.015625)"/>
      </defs>
      <use xlink:href="#DejaVuSans-41"/>
      <use xlink:href="#DejaVuSans-63" x="66.658203"/>
      <use xlink:href="#DejaVuSans-63" x="121.638672"/>
      <use xlink:href="#DejaVuSans-75" x="176.619141"/>
      <use xlink:href="#DejaVuSans-6d" x="239.998047"/>
      <use xlink:href="#DejaVuSans-75" x="337.410156"/>
      <use xlink:href="#DejaVuSans-6c" x="400.789062"/>
      <use xlink:href="#DejaVuSans-61" x="428.572266"/>
      <use xlink:href="#DejaVuSans-74" x="489.851562"/>
      <use xlink:href="#DejaVuSans-65" x="529.060547"/>
      <use xlink:href="#DejaVuSans-64" x="590.583984"/>
      <use xlink:href="#DejaVuSans-20" x="654.060547"/>
      <use xlink:href="#DejaVuSans-53" x="685.847656"/>
      <use xlink:href="#DejaVuSans-74" x="749.324219"/>
      <use xlink:href="#DejaVuSans-72" x="788.533203"/>
      <use xlink:href="#DejaVuSans-75" x="829.646484"/>
      <use xlink:href="#DejaVuSans-63" x="893.025391"/>
      <use xlink:href="#DejaVuSans-74" x="948.005859"/>
      <use xlink:href="#DejaVuSans-75" x="987.214844"/>
      <use xlink:href="#DejaVuSans-72" x="1050.59375"/>
      <use xlink:href="#DejaVuSans-61" x="1091.707031"/>
      <use xlink:href="#DejaVuSans-6c" x="1152.986328"/>
      <use xlink:href="#DejaVuSans-20" x="1180.769531"/>
      <use xlink:href="#DejaVuSans-50" x="1212.556641"/>
      <use xlink:href="#DejaVuSans-6f" x="1269.234375"/>
      <use xlink:href="#DejaVuSans-77" x="1330.416016"/>
      <use xlink:href="#DejaVuSans-65" x="1412.203125"/>
      <use xlink:href="#DejaVuSans-72" x="1473.726562"/>
     </g>
    </g>
   </g>
   <g id="line2d_13">
    <path d="M 73.832727 295.488 
L 77.112066 295.463317 
L 80.391405 295.389267 
L 83.670744 295.265851 
L 86.950083 295.093069 
L 90.229421 294.87092 
L 93.50876 294.599405 
L 96.788099 294.278523 
L 100.067438 293.908275 
L 103.346777 293.488661 
L 106.626116 293.01968 
L 109.905455 292.501333 
L 113.184793 291.93362 
L 116.464132 291.31654 
L 119.743471 290.650094 
L 123.02281 289.934281 
L 126.302149 289.169102 
L 129.581488 288.354556 
L 132.860826 287.490645 
L 136.140165 286.577366 
L 139.419504 285.614722 
L 142.698843 284.602711 
L 145.978182 283.541333 
L 149.257521 282.43059 
L 152.53686 281.270479 
L 155.816198 280.061003 
L 159.095537 278.80216 
L 162.374876 277.49395 
L 165.654215 276.136375 
L 168.933554 274.729433 
L 172.212893 273.273124 
L 175.492231 271.767449 
L 178.77157 270.212408 
L 182.050909 268.608 
L 185.330248 266.954226 
L 188.609587 265.251085 
L 191.888926 263.498579 
L 195.168264 261.696705 
L 198.447603 259.845466 
L 201.726942 257.94486 
L 205.006281 255.994887 
L 208.28562 253.995548 
L 211.564959 251.946843 
L 214.844298 249.848771 
L 218.123636 247.701333 
L 221.402975 245.504529 
L 224.682314 243.258358 
L 227.961653 240.962821 
L 231.240992 238.617917 
L 234.520331 236.223647 
L 237.799669 233.780011 
L 241.079008 231.287008 
L 244.358347 228.744639 
L 247.637686 226.152904 
L 250.917025 223.511802 
L 254.196364 220.821333 
L 257.475702 218.081499 
L 260.755041 215.292298 
L 264.03438 212.45373 
L 267.313719 209.565796 
L 270.593058 206.628496 
L 273.872397 203.641829 
L 277.151736 200.605796 
L 280.431074 197.520397 
L 283.710413 194.385631 
L 286.989752 191.201499 
L 290.269091 187.968 
L 293.54843 184.685135 
L 296.827769 181.352904 
L 300.107107 177.971306 
L 303.386446 174.540342 
L 306.665785 171.060011 
L 309.945124 167.530314 
L 313.224463 163.951251 
L 316.503802 160.322821 
L 319.78314 156.645025 
L 323.062479 152.917862 
L 326.341818 149.141333 
L 329.621157 145.315438 
L 332.900496 141.440176 
L 336.179835 137.515548 
L 339.459174 133.541554 
L 342.738512 129.518193 
L 346.017851 125.445466 
L 349.29719 121.323372 
L 352.576529 117.151912 
L 355.855868 112.931085 
L 359.135207 108.660893 
L 362.414545 104.341333 
L 365.693884 99.972408 
L 368.973223 95.554116 
L 372.252562 91.086457 
L 375.531901 86.569433 
L 378.81124 82.003041 
L 382.090579 77.387284 
L 385.369917 72.72216 
L 388.649256 68.007669 
L 391.928595 63.243813 
L 395.207934 58.43059 
L 398.487273 53.568 
" clip-path="url(#pbc66a7c701)" style="fill: none; stroke: #1f77b4; stroke-width: 1.5; stroke-linecap: square"/>
   </g>
   <g id="line2d_14">
    <path d="M 73.832727 295.488 
L 77.112066 295.465162 
L 80.391405 295.403004 
L 83.670744 295.309197 
L 86.950083 295.189541 
L 90.229421 295.048497 
L 93.50876 294.889558 
L 96.788099 294.715496 
L 100.067438 294.528535 
L 103.346777 294.330488 
L 106.626116 294.12284 
L 109.905455 293.906824 
L 113.184793 293.683469 
L 116.464132 293.453643 
L 119.743471 293.218082 
L 123.02281 292.977415 
L 126.302149 292.732181 
L 129.581488 292.482847 
L 132.860826 292.229818 
L 136.140165 291.973447 
L 139.419504 291.714044 
L 142.698843 291.451882 
L 145.978182 291.1872 
L 149.257521 290.920213 
L 152.53686 290.651112 
L 155.816198 290.380064 
L 159.095537 290.107224 
L 162.374876 289.832727 
L 165.654215 289.556697 
L 168.933554 289.279244 
L 172.212893 289.00047 
L 175.492231 288.720465 
L 178.77157 288.439314 
L 182.050909 288.157091 
L 185.330248 287.873866 
L 188.609587 287.589703 
L 191.888926 287.30466 
L 195.168264 287.018789 
L 198.447603 286.732142 
L 201.726942 286.444762 
L 205.006281 286.156692 
L 208.28562 285.86797 
L 211.564959 285.578633 
L 214.844298 285.288714 
L 218.123636 284.998244 
L 221.402975 284.707251 
L 224.682314 284.415763 
L 227.961653 284.123805 
L 231.240992 283.831399 
L 234.520331 283.538568 
L 237.799669 283.245333 
L 241.079008 282.951712 
L 244.358347 282.657723 
L 247.637686 282.363383 
L 250.917025 282.068709 
L 254.196364 281.773714 
L 257.475702 281.478414 
L 260.755041 281.182821 
L 264.03438 280.886947 
L 267.313719 280.590805 
L 270.593058 280.294406 
L 273.872397 279.99776 
L 277.151736 279.700877 
L 280.431074 279.403767 
L 283.710413 279.106438 
L 286.989752 278.808899 
L 290.269091 278.511158 
L 293.54843 278.213223 
L 296.827769 277.9151 
L 300.107107 277.616798 
L 303.386446 277.318321 
L 306.665785 277.019678 
L 309.945124 276.720873 
L 313.224463 276.421912 
L 316.503802 276.122801 
L 319.78314 275.823544 
L 323.062479 275.524148 
L 326.341818 275.224615 
L 329.621157 274.924952 
L 332.900496 274.625162 
L 336.179835 274.325249 
L 339.459174 274.025218 
L 342.738512 273.725072 
L 346.017851 273.424814 
L 349.29719 273.124449 
L 352.576529 272.823979 
L 355.855868 272.523407 
L 359.135207 272.222738 
L 362.414545 271.921973 
L 365.693884 271.621115 
L 368.973223 271.320168 
L 372.252562 271.019133 
L 375.531901 270.718014 
L 378.81124 270.416813 
L 382.090579 270.115531 
L 385.369917 269.814172 
L 388.649256 269.512737 
L 391.928595 269.211229 
L 395.207934 268.909649 
L 398.487273 268.608 
" clip-path="url(#pbc66a7c701)" style="fill: none; stroke: #ff7f0e; stroke-width: 1.5; stroke-linecap: square"/>
   </g>
   <g id="patch_3">
    <path d="M 57.6 307.584 
L 57.6 41.472 
" style="fill: none; stroke: #000000; stroke-width: 0.8; stroke-linejoin: miter; stroke-linecap: square"/>
   </g>
   <g id="patch_4">
    <path d="M 414.72 307.584 
L 414.72 41.472 
" style="fill: none; stroke: #000000; stroke-width: 0.8; stroke-linejoin: miter; stroke-linecap: square"/>
   </g>
   <g id="patch_5">
    <path d="M 57.6 307.584 
L 414.72 307.584 
" style="fill: none; stroke: #000000; stroke-width: 0.8; stroke-linejoin: miter; stroke-linecap: square"/>
   </g>
   <g id="patch_6">
    <path d="M 57.6 41.472 
L 414.72 41.472 
" style="fill: none; stroke: #000000; stroke-width: 0.8; stroke-linejoin: miter; stroke-linecap: square"/>
   </g>
   <g id="text_15">
    <!-- Unregulated -->
    <g transform="translate(203.694545 255.994887) scale(0.1 -0.1)">
     <defs>
      <path id="DejaVuSans-55" d="M 556 4666 
L 1191 4666 
L 1191 1831 
Q 1191 1081 1462 751 
Q 1734 422 2344 422 
Q 2950 422 3222 751 
Q 3494 1081 3494 1831 
L 3494 4666 
L 4128 4666 
L 4128 1753 
Q 4128 841 3676 375 
Q 3225 -91 2344 -91 
Q 1459 -91 1007 375 
Q 556 841 556 1753 
L 556 4666 
z
" transform="scale(0.015625)"/>
      <path id="DejaVuSans-67" d="M 2906 1791 
Q 2906 2416 2648 2759 
Q 2391 3103 1925 3103 
Q 1463 3103 1205 2759 
Q 947 2416 947 1791 
Q 947 1169 1205 825 
Q 1463 481 1925 481 
Q 2391 481 2648 825 
Q 2906 1169 2906 1791 
z
M 3481 434 
Q 3481 -459 3084 -895 
Q 2688 -1331 1869 -1331 
Q 1566 -1331 1297 -1286 
Q 1028 -1241 775 -1147 
L 775 -588 
Q 1028 -725 1275 -790 
Q 1522 -856 1778 -856 
Q 2344 -856 2625 -561 
Q 2906 -266 2906 331 
L 2906 616 
Q 2728 306 2450 153 
Q 2172 0 1784 0 
Q 1141 0 747 490 
Q 353 981 353 1791 
Q 353 2603 747 3093 
Q 1141 3584 1784 3584 
Q 2172 3584 2450 3431 
Q 2728 3278 2906 2969 
L 2906 3500 
L 3481 3500 
L 3481 434 
z
" transform="scale(0.015625)"/>
     </defs>
     <use xlink:href="#DejaVuSans-55"/>
     <use xlink:href="#DejaVuSans-6e" x="73.193359"/>
     <use xlink:href="#DejaVuSans-72" x="136.572266"/>
     <use xlink:href="#DejaVuSans-65" x="175.435547"/>
     <use xlink:href="#DejaVuSans-67" x="236.958984"/>
     <use xlink:href="#DejaVuSans-75" x="300.435547"/>
     <use xlink:href="#DejaVuSans-6c" x="363.814453"/>
     <use xlink:href="#DejaVuSans-61" x="391.597656"/>
     <use xlink:href="#DejaVuSans-74" x="452.876953"/>
     <use xlink:href="#DejaVuSans-65" x="492.085938"/>
     <use xlink:href="#DejaVuSans-64" x="553.609375"/>
    </g>
   </g>
   <g id="text_16">
    <!-- Entropy Moderated -->
    <g transform="translate(203.694545 286.156692) scale(0.1 -0.1)">
     <defs>
      <path id="DejaVuSans-45" d="M 628 4666 
L 3578 4666 
L 3578 4134 
L 1259 4134 
L 1259 2753 
L 3481 2753 
L 3481 2222 
L 1259 2222 
L 1259 531 
L 3634 531 
L 3634 0 
L 628 0 
L 628 4666 
z
" transform="scale(0.015625)"/>
      <path id="DejaVuSans-70" d="M 1159 525 
L 1159 -1331 
L 581 -1331 
L 581 3500 
L 1159 3500 
L 1159 2969 
Q 1341 3281 1617 3432 
Q 1894 3584 2278 3584 
Q 2916 3584 3314 3078 
Q 3713 2572 3713 1747 
Q 3713 922 3314 415 
Q 2916 -91 2278 -91 
Q 1894 -91 1617 61 
Q 1341 213 1159 525 
z
M 3116 1747 
Q 3116 2381 2855 2742 
Q 2594 3103 2138 3103 
Q 1681 3103 1420 2742 
Q 1159 2381 1159 1747 
Q 1159 1113 1420 752 
Q 1681 391 2138 391 
Q 2594 391 2855 752 
Q 3116 1113 3116 1747 
z
" transform="scale(0.015625)"/>
      <path id="DejaVuSans-4d" d="M 628 4666 
L 1569 4666 
L 2759 1491 
L 3956 4666 
L 4897 4666 
L 4897 0 
L 4281 0 
L 4281 4097 
L 3078 897 
L 2444 897 
L 1241 4097 
L 1241 0 
L 628 0 
L 628 4666 
z
" transform="scale(0.015625)"/>
     </defs>
     <use xlink:href="#DejaVuSans-45"/>
     <use xlink:href="#DejaVuSans-6e" x="63.183594"/>
     <use xlink:href="#DejaVuSans-74" x="126.5625"/>
     <use xlink:href="#DejaVuSans-72" x="165.771484"/>
     <use xlink:href="#DejaVuSans-6f" x="204.634766"/>
     <use xlink:href="#DejaVuSans-70" x="265.816406"/>
     <use xlink:href="#DejaVuSans-79" x="329.292969"/>
     <use xlink:href="#DejaVuSans-20" x="388.472656"/>
     <use xlink:href="#DejaVuSans-4d" x="420.259766"/>
     <use xlink:href="#DejaVuSans-6f" x="506.539062"/>
     <use xlink:href="#DejaVuSans-64" x="567.720703"/>
     <use xlink:href="#DejaVuSans-65" x="631.197266"/>
     <use xlink:href="#DejaVuSans-72" x="692.720703"/>
     <use xlink:href="#DejaVuSans-61" x="733.833984"/>
     <use xlink:href="#DejaVuSans-74" x="795.113281"/>
     <use xlink:href="#DejaVuSans-65" x="834.322266"/>
     <use xlink:href="#DejaVuSans-64" x="895.845703"/>
    </g>
   </g>
   <g id="text_17">
    <!-- Innovation vs Structural Dominance -->
    <g transform="translate(128.225625 35.472) scale(0.12 -0.12)">
     <defs>
      <path id="DejaVuSans-73" d="M 2834 3397 
L 2834 2853 
Q 2591 2978 2328 3040 
Q 2066 3103 1784 3103 
Q 1356 3103 1142 2972 
Q 928 2841 928 2578 
Q 928 2378 1081 2264 
Q 1234 2150 1697 2047 
L 1894 2003 
Q 2506 1872 2764 1633 
Q 3022 1394 3022 966 
Q 3022 478 2636 193 
Q 2250 -91 1575 -91 
Q 1294 -91 989 -36 
Q 684 19 347 128 
L 347 722 
Q 666 556 975 473 
Q 1284 391 1588 391 
Q 1994 391 2212 530 
Q 2431 669 2431 922 
Q 2431 1156 2273 1281 
Q 2116 1406 1581 1522 
L 1381 1569 
Q 847 1681 609 1914 
Q 372 2147 372 2553 
Q 372 3047 722 3315 
Q 1072 3584 1716 3584 
Q 2034 3584 2315 3537 
Q 2597 3491 2834 3397 
z
" transform="scale(0.015625)"/>
      <path id="DejaVuSans-44" d="M 1259 4147 
L 1259 519 
L 2022 519 
Q 2988 519 3436 956 
Q 3884 1394 3884 2338 
Q 3884 3275 3436 3711 
Q 2988 4147 2022 4147 
L 1259 4147 
z
M 628 4666 
L 1925 4666 
Q 3281 4666 3915 4102 
Q 4550 3538 4550 2338 
Q 4550 1131 3912 565 
Q 3275 0 1925 0 
L 628 0 
L 628 4666 
z
" transform="scale(0.015625)"/>
     </defs>
     <use xlink:href="#DejaVuSans-49"/>
     <use xlink:href="#DejaVuSans-6e" x="29.492188"/>
     <use xlink:href="#DejaVuSans-6e" x="92.871094"/>
     <use xlink:href="#DejaVuSans-6f" x="156.25"/>
     <use xlink:href="#DejaVuSans-76" x="217.431641"/>
     <use xlink:href="#DejaVuSans-61" x="276.611328"/>
     <use xlink:href="#DejaVuSans-74" x="337.890625"/>
     <use xlink:href="#DejaVuSans-69" x="377.099609"/>
     <use xlink:href="#DejaVuSans-6f" x="404.882812"/>
     <use xlink:href="#DejaVuSans-6e" x="466.064453"/>
     <use xlink:href="#DejaVuSans-20" x="529.443359"/>
     <use xlink:href="#DejaVuSans-76" x="561.230469"/>
     <use xlink:href="#DejaVuSans-73" x="620.410156"/>
     <use xlink:href="#DejaVuSans-20" x="672.509766"/>
     <use xlink:href="#DejaVuSans-53" x="704.296875"/>
     <use xlink:href="#DejaVuSans-74" x="767.773438"/>
     <use xlink:href="#DejaVuSans-72" x="806.982422"/>
     <use xlink:href="#DejaVuSans-75" x="848.095703"/>
     <use xlink:href="#DejaVuSans-63" x="911.474609"/>
     <use xlink:href="#DejaVuSans-74" x="966.455078"/>
     <use xlink:href="#DejaVuSans-75" x="1005.664062"/>
     <use xlink:href="#DejaVuSans-72" x="1069.042969"/>
     <use xlink:href="#DejaVuSans-61" x="1110.15625"/>
     <use xlink:href="#DejaVuSans-6c" x="1171.435547"/>
     <use xlink:href="#DejaVuSans-20" x="1199.21875"/>
     <use xlink:href="#DejaVuSans-44" x="1231.005859"/>
     <use xlink:href="#DejaVuSans-6f" x="1308.007812"/>
     <use xlink:href="#DejaVuSans-6d" x="1369.189453"/>
     <use xlink:href="#DejaVuSans-69" x="1466.601562"/>
     <use xlink:href="#DejaVuSans-6e" x="1494.384766"/>
     <use xlink:href="#DejaVuSans-61" x="1557.763672"/>
     <use xlink:href="#DejaVuSans-6e" x="1619.042969"/>
     <use xlink:href="#DejaVuSans-63" x="1682.421875"/>
     <use xlink:href="#DejaVuSans-65" x="1737.402344"/>
    </g>
   </g>
  </g>
 </g>
 <defs>
  <clipPath id="pbc66a7c701">
   <rect x="57.6" y="41.472" width="357.12" height="266.112"/>
  </clipPath>
 </defs>
</svg>
