<?xml version="1.0" encoding="utf-8" standalone="no"?>
<!DOCTYPE svg PUBLIC "-//W3C//DTD SVG 1.1//EN"
  "http://www.w3.org/Graphics/SVG/1.1/DTD/svg11.dtd">
<svg xmlns:xlink="http://www.w3.org/1999/xlink" width="460.8pt" height="345.6pt" viewBox="0 0 460.8 345.6" xmlns="http://www.w3.org/2000/svg" version="1.1">
 <metadata>
  <rdf:RDF xmlns:dc="http://purl.org/dc/elements/1.1/" xmlns:cc="http://creativecommons.org/ns#" xmlns:rdf="http://www.w3.org/1999/02/22-rdf-syntax-ns#">
   <cc:Work>
    <dc:type rdf:resource="http://purl.org/dc/dcmitype/StillImage"/>
    <dc:date>2026-02-16T09:22:51.340606</dc:date>
    <dc:format>image/svg+xml</dc:format>
    <dc:creator>
     <cc:Agent>
      <dc:title>Matplotlib v3.7.5, https://matplotlib.org/</dc:title>
     </cc:Agent>
    </dc:creator>
   </cc:Work>
  </rdf:RDF>
 </metadata>
 <defs>
  <style type="text/css">*{stroke-linejoin: round; stroke-linecap: butt}</style>
 </defs>
 <g id="figure_1">
  <g id="patch_1">
   <path d="M 0 345.6 
L 460.8 345.6 
L 460.8 0 
L 0 0 
z
" style="fill: #ffffff"/>
  </g>
  <g id="axes_1">
   <g id="patch_2">
    <path d="M 103.105836 307.584 
L 369.214164 307.584 
L 369.214164 41.472 
L 103.105836 41.472 
z
" style="fill: #ffffff"/>
   </g>
   <g id="matplotlib.axis_1">
    <g id="xtick_1">
     <g id="line2d_1">
      <defs>
       <path id="mc8d2aad456" d="M 0 0 
L 0 3.5 
" style="stroke: #000000; stroke-width: 0.8"/>
      </defs>
      <g>
       <use xlink:href="#mc8d2aad456" x="115.194992" y="307.584" style="stroke: #000000; stroke-width: 0.8"/>
      </g>
     </g>
     <g id="text_1">
      <!-- −2 -->
      <g transform="translate(107.823899 322.182437) scale(0.1 -0.1)">
       <defs>
        <path id="DejaVuSans-2212" d="M 678 2272 
L 4684 2272 
L 4684 1741 
L 678 1741 
L 678 2272 
z
" transform="scale(0.015625)"/>
        <path id="DejaVuSans-32" d="M 1228 531 
L 3431 531 
L 3431 0 
L 469 0 
L 469 531 
Q 828 903 1448 1529 
Q 2069 2156 2228 2338 
Q 2531 2678 2651 2914 
Q 2772 3150 2772 3378 
Q 2772 3750 2511 3984 
Q 2250 4219 1831 4219 
Q 1534 4219 1204 4116 
Q 875 4013 500 3803 
L 500 4441 
Q 881 4594 1212 4672 
Q 1544 4750 1819 4750 
Q 2544 4750 2975 4387 
Q 3406 4025 3406 3419 
Q 3406 3131 3298 2873 
Q 3191 2616 2906 2266 
Q 2828 2175 2409 1742 
Q 1991 1309 1228 531 
z
" transform="scale(0.015625)"/>
       </defs>
       <use xlink:href="#DejaVuSans-2212"/>
       <use xlink:href="#DejaVuSans-32" x="83.789062"/>
      </g>
     </g>
    </g>
    <g id="xtick_2">
     <g id="line2d_2">
      <g>
       <use xlink:href="#mc8d2aad456" x="175.675827" y="307.584" style="stroke: #000000; stroke-width: 0.8"/>
      </g>
     </g>
     <g id="text_2">
      <!-- −1 -->
      <g transform="translate(168.304733 322.182437) scale(0.1 -0.1)">
       <defs>
        <path id="DejaVuSans-31" d="M 794 531 
L 1825 531 
L 1825 4091 
L 703 3866 
L 703 4441 
L 1819 4666 
L 2450 4666 
L 2450 531 
L 3481 531 
L 3481 0 
L 794 0 
L 794 531 
z
" transform="scale(0.015625)"/>
       </defs>
       <use xlink:href="#DejaVuSans-2212"/>
       <use xlink:href="#DejaVuSans-31" x="83.789062"/>
      </g>
     </g>
    </g>
    <g id="xtick_3">
     <g id="line2d_3">
      <g>
       <use xlink:href="#mc8d2aad456" x="236.156662" y="307.584" style="stroke: #000000; stroke-width: 0.8"/>
      </g>
     </g>
     <g id="text_3">
      <!-- 0 -->
      <g transform="translate(232.975412 322.182437) scale(0.1 -0.1)">
       <defs>
        <path id="DejaVuSans-30" d="M 2034 4250 
Q 1547 4250 1301 3770 
Q 1056 3291 1056 2328 
Q 1056 1369 1301 889 
Q 1547 409 2034 409 
Q 2525 409 2770 889 
Q 3016 1369 3016 2328 
Q 3016 3291 2770 3770 
Q 2525 4250 2034 4250 
z
M 2034 4750 
Q 2819 4750 3233 4129 
Q 3647 3509 3647 2328 
Q 3647 1150 3233 529 
Q 2819 -91 2034 -91 
Q 1250 -91 836 529 
Q 422 1150 422 2328 
Q 422 3509 836 4129 
Q 1250 4750 2034 4750 
z
" transform="scale(0.015625)"/>
       </defs>
       <use xlink:href="#DejaVuSans-30"/>
      </g>
     </g>
    </g>
    <g id="xtick_4">
     <g id="line2d_4">
      <g>
       <use xlink:href="#mc8d2aad456" x="296.637496" y="307.584" style="stroke: #000000; stroke-width: 0.8"/>
      </g>
     </g>
     <g id="text_4">
      <!-- 1 -->
      <g transform="translate(293.456246 322.182437) scale(0.1 -0.1)">
       <use xlink:href="#DejaVuSans-31"/>
      </g>
     </g>
    </g>
    <g id="xtick_5">
     <g id="line2d_5">
      <g>
       <use xlink:href="#mc8d2aad456" x="357.118331" y="307.584" style="stroke: #000000; stroke-width: 0.8"/>
      </g>
     </g>
     <g id="text_5">
      <!-- 2 -->
      <g transform="translate(353.937081 322.182437) scale(0.1 -0.1)">
       <use xlink:href="#DejaVuSans-32"/>
      </g>
     </g>
    </g>
   </g>
   <g id="matplotlib.axis_2">
    <g id="ytick_1">
     <g id="line2d_6">
      <defs>
       <path id="mb2b14adfc3" d="M 0 0 
L -3.5 0 
" style="stroke: #000000; stroke-width: 0.8"/>
      </defs>
      <g>
       <use xlink:href="#mb2b14adfc3" x="103.105836" y="295.489669" style="stroke: #000000; stroke-width: 0.8"/>
      </g>
     </g>
     <g id="text_6">
      <!-- −2.0 -->
      <g transform="translate(71.823024 299.288888) scale(0.1 -0.1)">
       <defs>
        <path id="DejaVuSans-2e" d="M 684 794 
L 1344 794 
L 1344 0 
L 684 0 
L 684 794 
z
" transform="scale(0.015625)"/>
       </defs>
       <use xlink:href="#DejaVuSans-2212"/>
       <use xlink:href="#DejaVuSans-32" x="83.789062"/>
       <use xlink:href="#DejaVuSans-2e" x="147.412109"/>
       <use xlink:href="#DejaVuSans-30" x="179.199219"/>
      </g>
     </g>
    </g>
    <g id="ytick_2">
     <g id="line2d_7">
      <g>
       <use xlink:href="#mb2b14adfc3" x="103.105836" y="265.249252" style="stroke: #000000; stroke-width: 0.8"/>
      </g>
     </g>
     <g id="text_7">
      <!-- −1.5 -->
      <g transform="translate(71.823024 269.048471) scale(0.1 -0.1)">
       <defs>
        <path id="DejaVuSans-35" d="M 691 4666 
L 3169 4666 
L 3169 4134 
L 1269 4134 
L 1269 2991 
Q 1406 3038 1543 3061 
Q 1681 3084 1819 3084 
Q 2600 3084 3056 2656 
Q 3513 2228 3513 1497 
Q 3513 744 3044 326 
Q 2575 -91 1722 -91 
Q 1428 -91 1123 -41 
Q 819 9 494 109 
L 494 744 
Q 775 591 1075 516 
Q 1375 441 1709 441 
Q 2250 441 2565 725 
Q 2881 1009 2881 1497 
Q 2881 1984 2565 2268 
Q 2250 2553 1709 2553 
Q 1456 2553 1204 2497 
Q 953 2441 691 2322 
L 691 4666 
z
" transform="scale(0.015625)"/>
       </defs>
       <use xlink:href="#DejaVuSans-2212"/>
       <use xlink:href="#DejaVuSans-31" x="83.789062"/>
       <use xlink:href="#DejaVuSans-2e" x="147.412109"/>
       <use xlink:href="#DejaVuSans-35" x="179.199219"/>
      </g>
     </g>
    </g>
    <g id="ytick_3">
     <g id="line2d_8">
      <g>
       <use xlink:href="#mb2b14adfc3" x="103.105836" y="235.008835" style="stroke: #000000; stroke-width: 0.8"/>
      </g>
     </g>
     <g id="text_8">
      <!-- −1.0 -->
      <g transform="translate(71.823024 238.808053) scale(0.1 -0.1)">
       <use xlink:href="#DejaVuSans-2212"/>
       <use xlink:href="#DejaVuSans-31" x="83.789062"/>
       <use xlink:href="#DejaVuSans-2e" x="147.412109"/>
       <use xlink:href="#DejaVuSans-30" x="179.199219"/>
      </g>
     </g>
    </g>
    <g id="ytick_4">
     <g id="line2d_9">
      <g>
       <use xlink:href="#mb2b14adfc3" x="103.105836" y="204.768417" style="stroke: #000000; stroke-width: 0.8"/>
      </g>
     </g>
     <g id="text_9">
      <!-- −0.5 -->
      <g transform="translate(71.823024 208.567636) scale(0.1 -0.1)">
       <use xlink:href="#DejaVuSans-2212"/>
       <use xlink:href="#DejaVuSans-30" x="83.789062"/>
       <use xlink:href="#DejaVuSans-2e" x="147.412109"/>
       <use xlink:href="#DejaVuSans-35" x="179.199219"/>
      </g>
     </g>
    </g>
    <g id="ytick_5">
     <g id="line2d_10">
      <g>
       <use xlink:href="#mb2b14adfc3" x="103.105836" y="174.528" style="stroke: #000000; stroke-width: 0.8"/>
      </g>
     </g>
     <g id="text_10">
      <!-- 0.0 -->
      <g transform="translate(80.202711 178.327219) scale(0.1 -0.1)">
       <use xlink:href="#DejaVuSans-30"/>
       <use xlink:href="#DejaVuSans-2e" x="63.623047"/>
       <use xlink:href="#DejaVuSans-30" x="95.410156"/>
      </g>
     </g>
    </g>
    <g id="ytick_6">
     <g id="line2d_11">
      <g>
       <use xlink:href="#mb2b14adfc3" x="103.105836" y="144.287583" style="stroke: #000000; stroke-width: 0.8"/>
      </g>
     </g>
     <g id="text_11">
      <!-- 0.5 -->
      <g transform="translate(80.202711 148.086801) scale(0.1 -0.1)">
       <use xlink:href="#DejaVuSans-30"/>
       <use xlink:href="#DejaVuSans-2e" x="63.623047"/>
       <use xlink:href="#DejaVuSans-35" x="95.410156"/>
      </g>
     </g>
    </g>
    <g id="ytick_7">
     <g id="line2d_12">
      <g>
       <use xlink:href="#mb2b14adfc3" x="103.105836" y="114.047165" style="stroke: #000000; stroke-width: 0.8"/>
      </g>
     </g>
     <g id="text_12">
      <!-- 1.0 -->
      <g transform="translate(80.202711 117.846384) scale(0.1 -0.1)">
       <use xlink:href="#DejaVuSans-31"/>
       <use xlink:href="#DejaVuSans-2e" x="63.623047"/>
       <use xlink:href="#DejaVuSans-30" x="95.410156"/>
      </g>
     </g>
    </g>
    <g id="ytick_8">
     <g id="line2d_13">
      <g>
       <use xlink:href="#mb2b14adfc3" x="103.105836" y="83.806748" style="stroke: #000000; stroke-width: 0.8"/>
      </g>
     </g>
     <g id="text_13">
      <!-- 1.5 -->
      <g transform="translate(80.202711 87.605967) scale(0.1 -0.1)">
       <use xlink:href="#DejaVuSans-31"/>
       <use xlink:href="#DejaVuSans-2e" x="63.623047"/>
       <use xlink:href="#DejaVuSans-35" x="95.410156"/>
      </g>
     </g>
    </g>
    <g id="ytick_9">
     <g id="line2d_14">
      <g>
       <use xlink:href="#mb2b14adfc3" x="103.105836" y="53.566331" style="stroke: #000000; stroke-width: 0.8"/>
      </g>
     </g>
     <g id="text_14">
      <!-- 2.0 -->
      <g transform="translate(80.202711 57.36555) scale(0.1 -0.1)">
       <use xlink:href="#DejaVuSans-32"/>
       <use xlink:href="#DejaVuSans-2e" x="63.623047"/>
       <use xlink:href="#DejaVuSans-30" x="95.410156"/>
      </g>
     </g>
    </g>
   </g>
   <g id="line2d_15">
    <path d="M 296.637496 174.528 
L 296.517352 170.717693 
L 296.157396 166.922524 
L 295.559058 163.157571 
L 294.724716 159.437793 
L 293.657685 155.777968 
L 292.362203 152.192636 
L 290.843418 148.696042 
L 289.107364 145.302078 
L 287.160937 142.024228 
L 285.011872 138.875514 
L 282.668707 135.868447 
L 280.14075 133.014974 
L 277.438045 130.326431 
L 274.571331 127.8135 
L 271.551996 125.486164 
L 268.392036 123.35367 
L 265.104005 121.424491 
L 261.700968 119.706291 
L 258.196443 118.205896 
L 254.604355 116.929268 
L 250.938975 115.881478 
L 247.214865 115.066689 
L 243.446821 114.488139 
L 239.649813 114.148125 
L 235.838927 114.048 
L 232.029303 114.18816 
L 228.236078 114.568049 
L 224.47432 115.186158 
L 220.758977 116.04003 
L 217.104808 117.126273 
L 213.526331 118.440573 
L 210.037765 119.977706 
L 206.652968 121.731566 
L 203.385388 123.695186 
L 200.248008 125.860763 
L 197.253293 128.219694 
L 194.413139 130.762606 
L 191.738832 133.479398 
L 189.240995 136.359274 
L 186.929554 139.390795 
L 184.81369 142.561914 
L 182.901811 145.860034 
L 181.201513 149.272051 
L 179.719549 152.784409 
L 178.46181 156.383155 
L 177.43329 160.053989 
L 176.638077 163.782328 
L 176.07933 167.55336 
L 175.759269 171.352101 
L 175.679165 175.16346 
L 175.839337 178.972295 
L 176.239149 182.763473 
L 176.877011 186.521931 
L 177.75039 190.232737 
L 178.855816 193.881149 
L 180.188896 197.452672 
L 181.744335 200.933115 
L 183.515953 204.308652 
L 185.496712 207.56587 
L 187.678741 210.69183 
L 190.053372 213.674112 
L 192.61117 216.500867 
L 195.341974 219.160865 
L 198.234933 221.643537 
L 201.278554 223.939021 
L 204.460746 226.038196 
L 207.768864 227.932722 
L 211.189767 229.615072 
L 214.709862 231.078563 
L 218.315165 232.317379 
L 221.991352 233.3266 
L 225.723817 234.102215 
L 229.497732 234.641143 
L 233.298103 234.941244 
L 237.10983 235.001323 
L 240.917771 234.821144 
L 244.706796 234.401421 
L 248.461851 233.743823 
L 252.168018 232.850961 
L 255.810573 231.726384 
L 259.375042 230.374559 
L 262.847266 228.800857 
L 266.213449 227.01153 
L 269.460217 225.013687 
L 272.57467 222.815266 
L 275.544435 220.425 
L 278.357714 217.852387 
L 281.003329 215.107647 
L 283.47077 212.201685 
L 285.750232 209.146046 
L 287.83266 205.952871 
L 289.709781 202.634845 
L 291.374136 199.205152 
L 292.819114 195.677417 
L 294.038973 192.065655 
L 295.028867 188.384217 
L 295.784863 184.647729 
L 296.303958 180.871035 
L 296.584089 177.06914 
L 296.637496 174.528 
L 296.637496 174.528 
" clip-path="url(#p14e39a3a8e)" style="fill: none; stroke: #1f77b4; stroke-width: 1.5; stroke-linecap: square"/>
   </g>
   <g id="line2d_16">
    <path d="M 357.118331 174.528 
L 357.011516 169.44572 
L 356.69126 164.372416 
L 356.15813 159.317047 
L 355.413065 154.288543 
L 354.457383 149.295783 
L 353.29277 144.347586 
L 351.921285 139.45269 
L 350.345348 134.61974 
L 348.567744 129.857272 
L 346.591611 125.173696 
L 344.42044 120.577285 
L 342.058065 116.076156 
L 339.508659 111.678258 
L 336.776723 107.391359 
L 333.867083 103.223029 
L 330.784878 99.18063 
L 327.53555 95.271302 
L 324.124838 91.501948 
L 320.558767 87.879226 
L 316.843634 84.409534 
L 312.986 81.098999 
L 308.992678 77.953469 
L 304.870722 74.978498 
L 300.627409 72.179341 
L 296.270236 69.56094 
L 291.806896 67.127922 
L 287.245273 64.884582 
L 282.593423 62.834882 
L 277.859561 60.982443 
L 273.052048 59.330535 
L 268.179375 57.882077 
L 263.250146 56.639627 
L 258.273068 55.605378 
L 253.25693 54.781158 
L 248.210591 54.168421 
L 243.142964 53.768251 
L 238.062999 53.581354 
L 232.979667 53.608059 
L 227.901945 53.84832 
L 222.838803 54.301713 
L 217.79918 54.967437 
L 212.791979 55.844315 
L 207.826042 56.9308 
L 202.91014 58.224972 
L 198.052954 59.724547 
L 193.263063 61.426875 
L 188.548925 63.328949 
L 183.918868 65.427412 
L 179.381067 67.718556 
L 174.943537 70.198336 
L 170.614115 72.862372 
L 166.400447 75.705958 
L 162.309975 78.724073 
L 158.349924 81.911387 
L 154.527286 85.262271 
L 150.848813 88.770805 
L 147.321002 92.430795 
L 143.950083 96.235777 
L 140.742009 100.179029 
L 137.702446 104.253589 
L 134.836762 108.45226 
L 132.150019 112.767627 
L 129.646961 117.192068 
L 127.332009 121.71777 
L 125.209252 126.336739 
L 123.282437 131.040819 
L 121.554969 135.821701 
L 120.029899 140.670942 
L 118.709919 145.579978 
L 117.59736 150.540138 
L 116.694189 155.542664 
L 116.001999 160.578719 
L 115.522013 165.63941 
L 115.25508 170.715799 
L 115.201669 175.798921 
L 115.361877 180.879798 
L 115.735419 185.949457 
L 116.321636 190.998945 
L 117.119493 196.019344 
L 118.12758 201.001787 
L 119.344118 205.937475 
L 120.766958 210.817691 
L 122.393586 215.633816 
L 124.221131 220.377344 
L 126.246364 225.039898 
L 128.465708 229.613243 
L 130.875245 234.089303 
L 133.470719 238.460172 
L 136.247546 242.718131 
L 139.200821 246.85566 
L 142.325329 250.865451 
L 145.615552 254.740424 
L 149.065679 258.473734 
L 152.669617 262.058788 
L 156.421 265.489254 
L 160.313204 268.759075 
L 164.339355 271.862474 
L 168.492342 274.793972 
L 172.76483 277.548392 
L 177.149274 280.120867 
L 181.63793 282.506856 
L 186.222872 284.702144 
L 190.896001 286.702855 
L 195.649065 288.505454 
L 200.473669 290.106759 
L 205.361292 291.50394 
L 210.303303 292.694532 
L 215.290973 293.67643 
L 220.315494 294.447902 
L 225.367992 295.007583 
L 230.439544 295.354487 
L 235.521192 295.488 
L 240.603963 295.407886 
L 245.67888 295.114288 
L 250.73698 294.607722 
L 255.769329 293.889085 
L 260.767041 292.959646 
L 265.721288 291.821045 
L 270.623321 290.475293 
L 275.464484 288.924768 
L 280.236225 287.172208 
L 284.930117 285.220707 
L 289.537871 283.073714 
L 294.051349 280.735018 
L 298.462579 278.208751 
L 302.763771 275.499374 
L 306.94733 272.611672 
L 311.005865 269.550746 
L 314.932209 266.322 
L 318.719429 262.931138 
L 322.360835 259.384148 
L 325.849997 255.687294 
L 329.180752 251.847105 
L 332.347218 247.870364 
L 335.343802 243.764093 
L 338.165213 239.535544 
L 340.806467 235.192187 
L 343.2629 230.741691 
L 345.530174 226.191916 
L 347.604284 221.550898 
L 349.481567 216.826833 
L 351.158707 212.028065 
L 352.632744 207.163068 
L 353.901073 202.240434 
L 354.961454 197.268858 
L 355.812016 192.257119 
L 356.451254 187.214069 
L 356.878042 182.148615 
L 357.091624 177.069701 
L 357.118331 174.528 
L 357.118331 174.528 
" clip-path="url(#p14e39a3a8e)" style="fill: none; stroke: #ff7f0e; stroke-width: 1.5; stroke-linecap: square"/>
   </g>
   <g id="patch_3">
    <path d="M 103.105836 307.584 
L 103.105836 41.472 
" style="fill: none; stroke: #000000; stroke-width: 0.8; stroke-linejoin: miter; stroke-linecap: square"/>
   </g>
   <g id="patch_4">
    <path d="M 369.214164 307.584 
L 369.214164 41.472 
" style="fill: none; stroke: #000000; stroke-width: 0.8; stroke-linejoin: miter; stroke-linecap: square"/>
   </g>
   <g id="patch_5">
    <path d="M 103.105836 307.584 
L 369.214164 307.584 
" style="fill: none; stroke: #000000; stroke-width: 0.8; stroke-linejoin: miter; stroke-linecap: square"/>
   </g>
   <g id="patch_6">
    <path d="M 103.105836 41.472 
L 369.214164 41.472 
" style="fill: none; stroke: #000000; stroke-width: 0.8; stroke-linejoin: miter; stroke-linecap: square"/>
   </g>
   <g id="text_15">
    <!-- Hard Invariants -->
    <g transform="translate(197.691818 163.330187) scale(0.1 -0.1)">
     <defs>
      <path id="DejaVuSans-48" d="M 628 4666 
L 1259 4666 
L 1259 2753 
L 3553 2753 
L 3553 4666 
L 4184 4666 
L 4184 0 
L 3553 0 
L 3553 2222 
L 1259 2222 
L 1259 0 
L 628 0 
L 628 4666 
z
" transform="scale(0.015625)"/>
      <path id="DejaVuSans-61" d="M 2194 1759 
Q 1497 1759 1228 1600 
Q 959 1441 959 1056 
Q 959 750 1161 570 
Q 1363 391 1709 391 
Q 2188 391 2477 730 
Q 2766 1069 2766 1631 
L 2766 1759 
L 2194 1759 
z
M 3341 1997 
L 3341 0 
L 2766 0 
L 2766 531 
Q 2569 213 2275 61 
Q 1981 -91 1556 -91 
Q 1019 -91 701 211 
Q 384 513 384 1019 
Q 384 1609 779 1909 
Q 1175 2209 1959 2209 
L 2766 2209 
L 2766 2266 
Q 2766 2663 2505 2880 
Q 2244 3097 1772 3097 
Q 1472 3097 1187 3025 
Q 903 2953 641 2809 
L 641 3341 
Q 956 3463 1253 3523 
Q 1550 3584 1831 3584 
Q 2591 3584 2966 3190 
Q 3341 2797 3341 1997 
z
" transform="scale(0.015625)"/>
      <path id="DejaVuSans-72" d="M 2631 2963 
Q 2534 3019 2420 3045 
Q 2306 3072 2169 3072 
Q 1681 3072 1420 2755 
Q 1159 2438 1159 1844 
L 1159 0 
L 581 0 
L 581 3500 
L 1159 3500 
L 1159 2956 
Q 1341 3275 1631 3429 
Q 1922 3584 2338 3584 
Q 2397 3584 2469 3576 
Q 2541 3569 2628 3553 
L 2631 2963 
z
" transform="scale(0.015625)"/>
      <path id="DejaVuSans-64" d="M 2906 2969 
L 2906 4863 
L 3481 4863 
L 3481 0 
L 2906 0 
L 2906 525 
Q 2725 213 2448 61 
Q 2172 -91 1784 -91 
Q 1150 -91 751 415 
Q 353 922 353 1747 
Q 353 2572 751 3078 
Q 1150 3584 1784 3584 
Q 2172 3584 2448 3432 
Q 2725 3281 2906 2969 
z
M 947 1747 
Q 947 1113 1208 752 
Q 1469 391 1925 391 
Q 2381 391 2643 752 
Q 2906 1113 2906 1747 
Q 2906 2381 2643 2742 
Q 2381 3103 1925 3103 
Q 1469 3103 1208 2742 
Q 947 2381 947 1747 
z
" transform="scale(0.015625)"/>
      <path id="DejaVuSans-20" transform="scale(0.015625)"/>
      <path id="DejaVuSans-49" d="M 628 4666 
L 1259 4666 
L 1259 0 
L 628 0 
L 628 4666 
z
" transform="scale(0.015625)"/>
      <path id="DejaVuSans-6e" d="M 3513 2113 
L 3513 0 
L 2938 0 
L 2938 2094 
Q 2938 2591 2744 2837 
Q 2550 3084 2163 3084 
Q 1697 3084 1428 2787 
Q 1159 2491 1159 1978 
L 1159 0 
L 581 0 
L 581 3500 
L 1159 3500 
L 1159 2956 
Q 1366 3272 1645 3428 
Q 1925 3584 2291 3584 
Q 2894 3584 3203 3211 
Q 3513 2838 3513 2113 
z
" transform="scale(0.015625)"/>
      <path id="DejaVuSans-76" d="M 191 3500 
L 800 3500 
L 1894 563 
L 2988 3500 
L 3597 3500 
L 2284 0 
L 1503 0 
L 191 3500 
z
" transform="scale(0.015625)"/>
      <path id="DejaVuSans-69" d="M 603 3500 
L 1178 3500 
L 1178 0 
L 603 0 
L 603 3500 
z
M 603 4863 
L 1178 4863 
L 1178 4134 
L 603 4134 
L 603 4863 
z
" transform="scale(0.015625)"/>
      <path id="DejaVuSans-74" d="M 1172 4494 
L 1172 3500 
L 2356 3500 
L 2356 3053 
L 1172 3053 
L 1172 1153 
Q 1172 725 1289 603 
Q 1406 481 1766 481 
L 2356 481 
L 2356 0 
L 1766 0 
Q 1100 0 847 248 
Q 594 497 594 1153 
L 594 3053 
L 172 3053 
L 172 3500 
L 594 3500 
L 594 4494 
L 1172 4494 
z
" transform="scale(0.015625)"/>
      <path id="DejaVuSans-73" d="M 2834 3397 
L 2834 2853 
Q 2591 2978 2328 3040 
Q 2066 3103 1784 3103 
Q 1356 3103 1142 2972 
Q 928 2841 928 2578 
Q 928 2378 1081 2264 
Q 1234 2150 1697 2047 
L 1894 2003 
Q 2506 1872 2764 1633 
Q 3022 1394 3022 966 
Q 3022 478 2636 193 
Q 2250 -91 1575 -91 
Q 1294 -91 989 -36 
Q 684 19 347 128 
L 347 722 
Q 666 556 975 473 
Q 1284 391 1588 391 
Q 1994 391 2212 530 
Q 2431 669 2431 922 
Q 2431 1156 2273 1281 
Q 2116 1406 1581 1522 
L 1381 1569 
Q 847 1681 609 1914 
Q 372 2147 372 2553 
Q 372 3047 722 3315 
Q 1072 3584 1716 3584 
Q 2034 3584 2315 3537 
Q 2597 3491 2834 3397 
z
" transform="scale(0.015625)"/>
     </defs>
     <use xlink:href="#DejaVuSans-48"/>
     <use xlink:href="#DejaVuSans-61" x="75.195312"/>
     <use xlink:href="#DejaVuSans-72" x="136.474609"/>
     <use xlink:href="#DejaVuSans-64" x="175.837891"/>
     <use xlink:href="#DejaVuSans-20" x="239.314453"/>
     <use xlink:href="#DejaVuSans-49" x="271.101562"/>
     <use xlink:href="#DejaVuSans-6e" x="300.59375"/>
     <use xlink:href="#DejaVuSans-76" x="363.972656"/>
     <use xlink:href="#DejaVuSans-61" x="423.152344"/>
     <use xlink:href="#DejaVuSans-72" x="484.431641"/>
     <use xlink:href="#DejaVuSans-69" x="525.544922"/>
     <use xlink:href="#DejaVuSans-61" x="553.328125"/>
     <use xlink:href="#DejaVuSans-6e" x="614.607422"/>
     <use xlink:href="#DejaVuSans-74" x="677.986328"/>
     <use xlink:href="#DejaVuSans-73" x="717.195312"/>
    </g>
    <!-- ENV / SH / D -->
    <g transform="translate(205.326974 174.528) scale(0.1 -0.1)">
     <defs>
      <path id="DejaVuSans-45" d="M 628 4666 
L 3578 4666 
L 3578 4134 
L 1259 4134 
L 1259 2753 
L 3481 2753 
L 3481 2222 
L 1259 2222 
L 1259 531 
L 3634 531 
L 3634 0 
L 628 0 
L 628 4666 
z
" transform="scale(0.015625)"/>
      <path id="DejaVuSans-4e" d="M 628 4666 
L 1478 4666 
L 3547 763 
L 3547 4666 
L 4159 4666 
L 4159 0 
L 3309 0 
L 1241 3903 
L 1241 0 
L 628 0 
L 628 4666 
z
" transform="scale(0.015625)"/>
      <path id="DejaVuSans-56" d="M 1831 0 
L 50 4666 
L 709 4666 
L 2188 738 
L 3669 4666 
L 4325 4666 
L 2547 0 
L 1831 0 
z
" transform="scale(0.015625)"/>
      <path id="DejaVuSans-2f" d="M 1625 4666 
L 2156 4666 
L 531 -594 
L 0 -594 
L 1625 4666 
z
" transform="scale(0.015625)"/>
      <path id="DejaVuSans-53" d="M 3425 4513 
L 3425 3897 
Q 3066 4069 2747 4153 
Q 2428 4238 2131 4238 
Q 1616 4238 1336 4038 
Q 1056 3838 1056 3469 
Q 1056 3159 1242 3001 
Q 1428 2844 1947 2747 
L 2328 2669 
Q 3034 2534 3370 2195 
Q 3706 1856 3706 1288 
Q 3706 609 3251 259 
Q 2797 -91 1919 -91 
Q 1588 -91 1214 -16 
Q 841 59 441 206 
L 441 856 
Q 825 641 1194 531 
Q 1563 422 1919 422 
Q 2459 422 2753 634 
Q 3047 847 3047 1241 
Q 3047 1584 2836 1778 
Q 2625 1972 2144 2069 
L 1759 2144 
Q 1053 2284 737 2584 
Q 422 2884 422 3419 
Q 422 4038 858 4394 
Q 1294 4750 2059 4750 
Q 2388 4750 2728 4690 
Q 3069 4631 3425 4513 
z
" transform="scale(0.015625)"/>
      <path id="DejaVuSans-44" d="M 1259 4147 
L 1259 519 
L 2022 519 
Q 2988 519 3436 956 
Q 3884 1394 3884 2338 
Q 3884 3275 3436 3711 
Q 2988 4147 2022 4147 
L 1259 4147 
z
M 628 4666 
L 1925 4666 
Q 3281 4666 3915 4102 
Q 4550 3538 4550 2338 
Q 4550 1131 3912 565 
Q 3275 0 1925 0 
L 628 0 
L 628 4666 
z
" transform="scale(0.015625)"/>
     </defs>
     <use xlink:href="#DejaVuSans-45"/>
     <use xlink:href="#DejaVuSans-4e" x="63.183594"/>
     <use xlink:href="#DejaVuSans-56" x="137.988281"/>
     <use xlink:href="#DejaVuSans-20" x="206.396484"/>
     <use xlink:href="#DejaVuSans-2f" x="238.183594"/>
     <use xlink:href="#DejaVuSans-20" x="271.875"/>
     <use xlink:href="#DejaVuSans-53" x="303.662109"/>
     <use xlink:href="#DejaVuSans-48" x="367.138672"/>
     <use xlink:href="#DejaVuSans-20" x="442.333984"/>
     <use xlink:href="#DejaVuSans-2f" x="474.121094"/>
     <use xlink:href="#DejaVuSans-20" x="507.8125"/>
     <use xlink:href="#DejaVuSans-44" x="539.599609"/>
    </g>
   </g>
   <g id="text_16">
    <!-- Hard Invariants vs Adaptive Surfaces -->
    <g transform="translate(125.064375 35.472) scale(0.12 -0.12)">
     <defs>
      <path id="DejaVuSans-41" d="M 2188 4044 
L 1331 1722 
L 3047 1722 
L 2188 4044 
z
M 1831 4666 
L 2547 4666 
L 4325 0 
L 3669 0 
L 3244 1197 
L 1141 1197 
L 716 0 
L 50 0 
L 1831 4666 
z
" transform="scale(0.015625)"/>
      <path id="DejaVuSans-70" d="M 1159 525 
L 1159 -1331 
L 581 -1331 
L 581 3500 
L 1159 3500 
L 1159 2969 
Q 1341 3281 1617 3432 
Q 1894 3584 2278 3584 
Q 2916 3584 3314 3078 
Q 3713 2572 3713 1747 
Q 3713 922 3314 415 
Q 2916 -91 2278 -91 
Q 1894 -91 1617 61 
Q 1341 213 1159 525 
z
M 3116 1747 
Q 3116 2381 2855 2742 
Q 2594 3103 2138 3103 
Q 1681 3103 1420 2742 
Q 1159 2381 1159 1747 
Q 1159 1113 1420 752 
Q 1681 391 2138 391 
Q 2594 391 2855 752 
Q 3116 1113 3116 1747 
z
" transform="scale(0.015625)"/>
      <path id="DejaVuSans-65" d="M 3597 1894 
L 3597 1613 
L 953 1613 
Q 991 1019 1311 708 
Q 1631 397 2203 397 
Q 2534 397 2845 478 
Q 3156 559 3463 722 
L 3463 178 
Q 3153 47 2828 -22 
Q 2503 -91 2169 -91 
Q 1331 -91 842 396 
Q 353 884 353 1716 
Q 353 2575 817 3079 
Q 1281 3584 2069 3584 
Q 2775 3584 3186 3129 
Q 3597 2675 3597 1894 
z
M 3022 2063 
Q 3016 2534 2758 2815 
Q 2500 3097 2075 3097 
Q 1594 3097 1305 2825 
Q 1016 2553 972 2059 
L 3022 2063 
z
" transform="scale(0.015625)"/>
      <path id="DejaVuSans-75" d="M 544 1381 
L 544 3500 
L 1119 3500 
L 1119 1403 
Q 1119 906 1312 657 
Q 1506 409 1894 409 
Q 2359 409 2629 706 
Q 2900 1003 2900 1516 
L 2900 3500 
L 3475 3500 
L 3475 0 
L 2900 0 
L 2900 538 
Q 2691 219 2414 64 
Q 2138 -91 1772 -91 
Q 1169 -91 856 284 
Q 544 659 544 1381 
z
M 1991 3584 
L 1991 3584 
z
" transform="scale(0.015625)"/>
      <path id="DejaVuSans-66" d="M 2375 4863 
L 2375 4384 
L 1825 4384 
Q 1516 4384 1395 4259 
Q 1275 4134 1275 3809 
L 1275 3500 
L 2222 3500 
L 2222 3053 
L 1275 3053 
L 1275 0 
L 697 0 
L 697 3053 
L 147 3053 
L 147 3500 
L 697 3500 
L 697 3744 
Q 697 4328 969 4595 
Q 1241 4863 1831 4863 
L 2375 4863 
z
" transform="scale(0.015625)"/>
      <path id="DejaVuSans-63" d="M 3122 3366 
L 3122 2828 
Q 2878 2963 2633 3030 
Q 2388 3097 2138 3097 
Q 1578 3097 1268 2742 
Q 959 2388 959 1747 
Q 959 1106 1268 751 
Q 1578 397 2138 397 
Q 2388 397 2633 464 
Q 2878 531 3122 666 
L 3122 134 
Q 2881 22 2623 -34 
Q 2366 -91 2075 -91 
Q 1284 -91 818 406 
Q 353 903 353 1747 
Q 353 2603 823 3093 
Q 1294 3584 2113 3584 
Q 2378 3584 2631 3529 
Q 2884 3475 3122 3366 
z
" transform="scale(0.015625)"/>
     </defs>
     <use xlink:href="#DejaVuSans-48"/>
     <use xlink:href="#DejaVuSans-61" x="75.195312"/>
     <use xlink:href="#DejaVuSans-72" x="136.474609"/>
     <use xlink:href="#DejaVuSans-64" x="175.837891"/>
     <use xlink:href="#DejaVuSans-20" x="239.314453"/>
     <use xlink:href="#DejaVuSans-49" x="271.101562"/>
     <use xlink:href="#DejaVuSans-6e" x="300.59375"/>
     <use xlink:href="#DejaVuSans-76" x="363.972656"/>
     <use xlink:href="#DejaVuSans-61" x="423.152344"/>
     <use xlink:href="#DejaVuSans-72" x="484.431641"/>
     <use xlink:href="#DejaVuSans-69" x="525.544922"/>
     <use xlink:href="#DejaVuSans-61" x="553.328125"/>
     <use xlink:href="#DejaVuSans-6e" x="614.607422"/>
     <use xlink:href="#DejaVuSans-74" x="677.986328"/>
     <use xlink:href="#DejaVuSans-73" x="717.195312"/>
     <use xlink:href="#DejaVuSans-20" x="769.294922"/>
     <use xlink:href="#DejaVuSans-76" x="801.082031"/>
     <use xlink:href="#DejaVuSans-73" x="860.261719"/>
     <use xlink:href="#DejaVuSans-20" x="912.361328"/>
     <use xlink:href="#DejaVuSans-41" x="944.148438"/>
     <use xlink:href="#DejaVuSans-64" x="1010.806641"/>
     <use xlink:href="#DejaVuSans-61" x="1074.283203"/>
     <use xlink:href="#DejaVuSans-70" x="1135.5625"/>
     <use xlink:href="#DejaVuSans-74" x="1199.039062"/>
     <use xlink:href="#DejaVuSans-69" x="1238.248047"/>
     <use xlink:href="#DejaVuSans-76" x="1266.03125"/>
     <use xlink:href="#DejaVuSans-65" x="1325.210938"/>
     <use xlink:href="#DejaVuSans-20" x="1386.734375"/>
     <use xlink:href="#DejaVuSans-53" x="1418.521484"/>
     <use xlink:href="#DejaVuSans-75" x="1481.998047"/>
     <use xlink:href="#DejaVuSans-72" x="1545.376953"/>
     <use xlink:href="#DejaVuSans-66" x="1586.490234"/>
     <use xlink:href="#DejaVuSans-61" x="1621.695312"/>
     <use xlink:href="#DejaVuSans-63" x="1682.974609"/>
     <use xlink:href="#DejaVuSans-65" x="1737.955078"/>
     <use xlink:href="#DejaVuSans-73" x="1799.478516"/>
    </g>
   </g>
  </g>
 </g>
 <defs>
  <clipPath id="p14e39a3a8e">
   <rect x="103.105836" y="41.472" width="266.108328" height="266.112"/>
  </clipPath>
 </defs>
</svg>
